<svg width="121" height="121" fill="none" xmlns="http://www.w3.org/2000/svg"><rect width="121" height="121" rx="20" fill="#F1F7FF"/><path d="M60.998 65.008c-.4 0-.801-.092-1.171-.308L32.6 48.944a2.318 2.318 0 01-.832-3.176c.648-1.11 2.035-1.48 3.176-.833l26.054 15.078 25.9-14.985c1.11-.648 2.528-.247 3.176.833.647 1.11.247 2.528-.832 3.175L62.2 64.7c-.401.185-.802.308-1.203.308z" fill="#2639ED"/><path d="M61 92.943a2.33 2.33 0 01-2.313-2.312V62.665A2.33 2.33 0 0161 60.352a2.33 2.33 0 012.313 2.313v27.966A2.33 2.33 0 0161 92.943z" fill="#2639ED"/><path d="M60.997 94.147c-2.806 0-5.489-.648-7.524-1.789l-16.465-9.126c-4.47-2.467-7.986-8.418-7.986-13.536V52.244c0-5.118 3.515-11.038 7.986-13.536l16.465-9.126c4.194-2.344 10.792-2.344 15.016 0l16.465 9.126c4.47 2.467 7.986 8.418 7.986 13.536v11.285a2.33 2.33 0 01-2.313 2.312 2.33 2.33 0 01-2.312-2.312V52.244c0-3.392-2.62-7.831-5.58-9.466l-16.466-9.126c-2.806-1.573-7.708-1.573-10.514 0L39.29 42.778c-2.99 1.665-5.58 6.074-5.58 9.466v17.452c0 3.391 2.62 7.832 5.58 9.466l16.465 9.126c2.713 1.511 7.832 1.511 10.514 0a2.321 2.321 0 013.145.895 2.32 2.32 0 01-.894 3.144c-2.035 1.172-4.718 1.82-7.523 1.82z" fill="#2639ED"/><path d="M83.2 92.296c-6.722 0-12.18-5.458-12.18-12.18 0-6.721 5.458-12.178 12.18-12.178 6.722 0 12.18 5.457 12.18 12.179 0 6.721-5.458 12.179-12.18 12.179zm0-19.734c-4.163 0-7.554 3.392-7.554 7.555 0 4.162 3.391 7.554 7.554 7.554 4.162 0 7.554-3.392 7.554-7.554 0-4.163-3.392-7.555-7.554-7.555z" fill="#2639ED"/><path d="M94.915 94.146a2.287 2.287 0 01-1.634-.678l-3.083-3.084a2.327 2.327 0 010-3.268 2.326 2.326 0 013.268 0l3.083 3.083a2.327 2.327 0 010 3.269 2.287 2.287 0 01-1.634.678z" fill="#2639ED"/></svg>