<svg width="121" height="121" fill="none" xmlns="http://www.w3.org/2000/svg"><rect width="121" height="121" rx="20" fill="#FFF2F8"/><path d="M51.753 78.729c-.34 0-.71-.093-1.018-.247a15.47 15.47 0 01-5.889-5.21 5.449 5.449 0 010-6.075 15.142 15.142 0 015.89-5.18c1.14-.586 2.528-.092 3.114 1.049.585 1.14.123 2.528-1.049 3.114a10.613 10.613 0 00-4.1 3.638.892.892 0 000 .956 10.613 10.613 0 004.1 3.638 2.352 2.352 0 011.049 3.114 2.472 2.472 0 01-2.097 1.203zm19.142 0a2.287 2.287 0 01-2.066-1.264c-.586-1.141-.123-2.529 1.049-3.115a10.614 10.614 0 004.1-3.638.892.892 0 000-.956 10.614 10.614 0 00-4.1-3.638 2.352 2.352 0 01-1.049-3.114 2.352 2.352 0 013.114-1.048 15.47 15.47 0 015.89 5.21 5.448 5.448 0 010 6.075 15.142 15.142 0 01-5.89 5.18c-.37.215-.709.308-1.048.308z" fill="#FF007A"/><path d="M70.25 94.146h-18.5c-16.742 0-23.896-7.153-23.896-23.896v-18.5c0-16.742 7.154-23.896 23.896-23.896h18.5c16.743 0 23.896 7.154 23.896 23.896v18.5c0 16.743-7.153 23.896-23.896 23.896zm-18.5-61.667c-14.214 0-19.27 5.057-19.27 19.271v18.5c0 14.214 5.056 19.27 19.27 19.27h18.5c14.214 0 19.27-5.056 19.27-19.27v-18.5c0-14.214-5.056-19.27-19.27-19.27h-18.5z" fill="#FF007A"/><path d="M30.877 51.01a2.33 2.33 0 01-2.312-2.313 2.31 2.31 0 012.312-2.312l59.262-.03a2.33 2.33 0 012.313 2.312 2.31 2.31 0 01-2.313 2.312l-59.262.031z" fill="#FF007A"/></svg>