<svg width="121" height="121" fill="none" xmlns="http://www.w3.org/2000/svg"><rect width="121" height="121" rx="20" fill="#DEFFEE"/><path d="M55.173 79.962H43.488a2.33 2.33 0 01-2.313-2.313V61.862c0-3.206 2.62-5.828 5.828-5.828h8.17a2.33 2.33 0 012.313 2.313v19.27c0 1.296-1.048 2.344-2.313 2.344zM45.8 75.335h7.06V60.692h-5.857c-.648 0-1.203.523-1.203 1.202v13.444z" fill="#00DA71"/><path d="M66.826 79.962H55.14a2.33 2.33 0 01-2.312-2.313V47.864c0-3.207 2.62-5.828 5.827-5.828h4.687c3.207 0 5.828 2.621 5.828 5.828v29.785c-.031 1.264-1.049 2.313-2.344 2.313zm-9.342-4.626h7.06V47.864c0-.648-.524-1.203-1.202-1.203h-4.687c-.647 0-1.202.524-1.202 1.203v27.473h.03z" fill="#00DA71"/><path d="M78.515 79.962H66.83a2.33 2.33 0 01-2.312-2.313V63.62a2.33 2.33 0 012.312-2.312H75c3.207 0 5.828 2.621 5.828 5.828V77.65a2.31 2.31 0 01-2.313 2.313zm-9.373-4.625h7.06v-8.202c0-.648-.523-1.203-1.202-1.203h-5.858v9.405z" fill="#00DA71"/><path d="M70.25 94.146h-18.5c-16.742 0-23.896-7.153-23.896-23.896v-18.5c0-16.742 7.154-23.896 23.896-23.896h18.5c16.743 0 23.896 7.154 23.896 23.896v18.5c0 16.743-7.153 23.896-23.896 23.896zm-18.5-61.667c-14.214 0-19.27 5.057-19.27 19.271v18.5c0 14.214 5.056 19.27 19.27 19.27h18.5c14.214 0 19.27-5.056 19.27-19.27v-18.5c0-14.214-5.056-19.27-19.27-19.27h-18.5z" fill="#00DA71"/></svg>