<svg width="173" height="44" fill="none" xmlns="http://www.w3.org/2000/svg"><g clip-path="url(#clip0_0_1175)"><path d="M12.975 18.729h3.708L3.755 43.651H0l12.975-24.924z" fill="url(#paint0_linear_0_1175)"/><path d="M22.729 18.729h-6.046L3.755 43.651h5.993l12.98-24.924z" fill="url(#paint1_linear_0_1175)"/><path d="M17.855 9.364l17.848 34.288h5.535L20.134 4.982l-2.28 4.382z" fill="#1F52FF"/><path d="M20.134 4.981L22.729 0l22.723 43.652h-4.214L20.134 4.982z" fill="url(#paint2_linear_0_1175)"/><path d="M3.755 43.652h5.873s6.527-15.501 27.224-16.285l-2.635-5.062s-18.13.987-30.462 21.347z" fill="url(#paint3_linear_0_1175)"/><path d="M0 43.652h4.116s10.506-19.228 30.227-21.347l-1.66-3.182S13.636 19.187 0 43.652z" fill="url(#paint4_linear_0_1175)"/><path d="M49.298 35.431V19.27h5.89v16.267c0 5.364-4.58 8.464-9.541 8.464-4.96 0-9.576-3.1-9.576-8.464V19.269h5.89V35.43c0 1.986 1.895 2.96 3.686 2.96s3.651-.974 3.651-2.96z" fill="url(#paint5_linear_0_1175)"/><path d="M72.13 42.746v.906h-6.889l-4.134-7.176h-3.203v7.176h-6.166V19.269h10.575c9.473.034 11.195 11.564 5.098 15.744l4.72 7.733zm-9.817-17.904c-1.447-.035-2.962 0-4.409 0v6.096h4.41c3.34 0 3.513-6.061 0-6.096z" fill="url(#paint6_linear_0_1175)"/><path d="M85.633 40.586h-9.507l-1.412 3.066h-6.028v-.906l10.85-23.79h2.653l10.885 23.79v.906h-6.029l-1.412-3.066zm-4.788-11.738l-2.721 6.409h5.511l-2.79-6.41z" fill="url(#paint7_linear_0_1175)"/><path d="M90.91 24.842v-5.573h17.911v5.573h-5.89v18.81h-6.097v-18.81h-5.925zM173 43.652h-6.304v-9.788h-7.44v9.788h-6.304V19.269h6.304v8.847h7.44V19.27H173v24.383zm-32.787-24.906c4.995 0 10.403 2.752 11.333 9.266h-6.063c-.861-2.474-2.687-3.588-5.27-3.588-3.617 0-5.994 2.752-5.994 6.792 0 3.588 2.343 6.723 5.994 6.758 2.618 0 4.719-1.324 5.374-3.936h6.062c-.895 6.897-6.304 9.614-11.436 9.614-6.131.035-12.332-4.145-12.366-12.436.034-8.29 6.235-12.47 12.366-12.47zm-13.664 6.096h-8.921v3.448h8.198v5.539h-8.198v4.284h9.231v5.539h-15.363V19.269h15.053v5.573z" fill="#000"/></g><defs><linearGradient id="paint0_linear_0_1175" x1="0" y1="31.187" x2="16.683" y2="31.187" gradientUnits="userSpaceOnUse"><stop stop-color="#0A41FF"/><stop offset="1" stop-color="#FC71FF"/></linearGradient><linearGradient id="paint1_linear_0_1175" x1="3.755" y1="31.187" x2="22.729" y2="31.187" gradientUnits="userSpaceOnUse"><stop stop-color="#0A41FF"/><stop offset="1" stop-color="#FC71FF"/></linearGradient><linearGradient id="paint2_linear_0_1175" x1="20.134" y1="21.829" x2="45.452" y2="21.829" gradientUnits="userSpaceOnUse"><stop stop-color="#0A41FF"/><stop offset=".49" stop-color="#1F52FF"/><stop offset="1" stop-color="#FC71FF"/></linearGradient><linearGradient id="paint3_linear_0_1175" x1="3.755" y1="32.981" x2="36.852" y2="32.981" gradientUnits="userSpaceOnUse"><stop stop-color="#0A41FF"/><stop offset="1" stop-color="#FC71FF"/></linearGradient><linearGradient id="paint4_linear_0_1175" x1="0" y1="31.39" x2="34.343" y2="31.39" gradientUnits="userSpaceOnUse"><stop stop-color="#1F52FF"/><stop offset="1" stop-color="#FC71FF"/></linearGradient><linearGradient id="paint5_linear_0_1175" x1="36.071" y1="31.634" x2="55.183" y2="31.634" gradientUnits="userSpaceOnUse"><stop stop-color="#0A41FF"/><stop offset=".49" stop-color="#1F52FF"/><stop offset="1" stop-color="#FC71FF"/></linearGradient><linearGradient id="paint6_linear_0_1175" x1="51.738" y1="31.46" x2="72.13" y2="31.46" gradientUnits="userSpaceOnUse"><stop stop-color="#0A41FF"/><stop offset=".49" stop-color="#1F52FF"/><stop offset="1" stop-color="#FC71FF"/></linearGradient><linearGradient id="paint7_linear_0_1175" x1="68.686" y1="31.303" x2="93.073" y2="31.303" gradientUnits="userSpaceOnUse"><stop stop-color="#0A41FF"/><stop offset=".49" stop-color="#1F52FF"/><stop offset="1" stop-color="#FC71FF"/></linearGradient><clipPath id="clip0_0_1175"><path fill="#fff" d="M0 0h173v44H0z"/></clipPath></defs></svg>