<svg width="16" height="16" fill="none" xmlns="http://www.w3.org/2000/svg"><path d="M14.975 12.431c0 .252-.056.511-.175.763s-.273.49-.476.714a3.156 3.156 0 01-1.148.826c-.42.175-.875.266-1.365.266-.714 0-1.477-.168-2.282-.511a12.295 12.295 0 01-2.408-1.386 20.125 20.125 0 01-2.296-1.96 19.89 19.89 0 01-1.953-2.289A12.48 12.48 0 011.5 6.467C1.164 5.669.996 4.906.996 4.178c0-.476.084-.931.252-1.351.168-.427.434-.819.805-1.169C2.501 1.217 2.991 1 3.51 1c.196 0 .392.042.567.126.182.084.343.21.47.392L6.17 3.807c.126.175.217.336.28.49.063.147.098.294.098.427a.95.95 0 01-.147.497 2.38 2.38 0 01-.392.497l-.532.553a.375.375 0 00-.112.28c0 .056.007.105.021.161.021.056.042.098.056.14.126.231.343.532.651.896.315.364.651.735 1.015 1.106.378.371.742.714 1.113 1.029.364.308.665.518.903.644.035.014.077.035.126.056a.483.483 0 00.175.028c.12 0 .21-.042.287-.119l.532-.525c.175-.175.343-.308.504-.392a.932.932 0 01.497-.147c.133 0 .273.028.427.091.154.063.315.154.49.273l2.317 1.645c.182.126.308.273.385.448.07.175.112.35.112.546z" stroke="#fff" stroke-width="1.8" stroke-miterlimit="10"/></svg>